<svg xmlns="http://www.w3.org/2000/svg" xmlns:xlink="http://www.w3.org/1999/xlink" width="1080" zoomAndPan="magnify" viewBox="0 0 810 809.999993" height="1080" preserveAspectRatio="xMidYMid meet" version="1.0"><defs><g/><clipPath id="38c67be97a"><path d="M 564 190.25 L 706.109375 190.25 L 706.109375 394.066406 L 564 394.066406 Z M 564 190.25 " clip-rule="nonzero"/></clipPath></defs><g fill="#ffffff" fill-opacity="1"><g transform="translate(60.578636, 381.517927)"><g><path d="M 16.8125 -95.84375 L 16.8125 -116.21875 C 16.9375 -130.539062 20.300781 -142 26.90625 -150.59375 C 33.507812 -159.1875 42.664062 -163.484375 54.375 -163.484375 C 59.351562 -163.484375 64.113281 -162.765625 68.65625 -161.328125 C 73.207031 -159.898438 76.476562 -158.441406 78.46875 -156.953125 L 81.65625 -154.890625 L 70.0625 -131.53125 C 67.070312 -133.28125 63.769531 -134.15625 60.15625 -134.15625 C 56.050781 -134.15625 53.3125 -132.753906 51.9375 -129.953125 C 50.570312 -127.148438 49.890625 -122.257812 49.890625 -115.28125 L 49.890625 -95.84375 L 71.9375 -95.84375 L 71.9375 -70.625 L 49.890625 -70.625 L 49.890625 0 L 16.8125 0 L 16.8125 -70.625 L 2.984375 -70.625 L 2.984375 -95.84375 Z M 16.8125 -95.84375 "/></g></g></g><g fill="#ffffff" fill-opacity="1"><g transform="translate(121.30476, 381.517927)"><g><path d="M 11.203125 0 L 11.203125 -160.6875 L 44.28125 -160.6875 L 44.28125 0 Z M 11.203125 0 "/></g></g></g><g fill="#ffffff" fill-opacity="1"><g transform="translate(167.456611, 381.517927)"><g><path d="M 14.375 -149.28125 C 18.238281 -153.144531 22.847656 -155.078125 28.203125 -155.078125 C 33.566406 -155.078125 38.175781 -153.144531 42.03125 -149.28125 C 45.894531 -145.425781 47.828125 -140.816406 47.828125 -135.453125 C 47.828125 -130.097656 45.894531 -125.488281 42.03125 -121.625 C 38.175781 -117.769531 33.566406 -115.84375 28.203125 -115.84375 C 22.847656 -115.84375 18.238281 -117.769531 14.375 -121.625 C 10.519531 -125.488281 8.59375 -130.097656 8.59375 -135.453125 C 8.59375 -140.816406 10.519531 -145.425781 14.375 -149.28125 Z M 11.203125 -95.84375 L 11.203125 0 L 44.28125 0 L 44.28125 -95.84375 Z M 11.203125 -95.84375 "/></g></g></g><g fill="#ffffff" fill-opacity="1"><g transform="translate(214.542705, 381.517927)"><g><path d="M 6.90625 23.546875 L 34 10.28125 C 38.988281 18.5 47.648438 22.609375 59.984375 22.609375 C 65.710938 22.609375 71.035156 20.769531 75.953125 17.09375 C 80.867188 13.414062 83.328125 7.78125 83.328125 0.1875 L 83.328125 -6.90625 C 77.472656 -0.4375 67.007812 2.796875 51.9375 2.796875 C 38.113281 2.796875 26.71875 -2.085938 17.75 -11.859375 C 8.78125 -21.640625 4.296875 -33.628906 4.296875 -47.828125 C 4.296875 -62.023438 8.78125 -74.046875 17.75 -83.890625 C 26.71875 -93.734375 38.113281 -98.65625 51.9375 -98.65625 C 64.269531 -98.65625 74.546875 -94.851562 82.765625 -87.25 L 83.328125 -87.25 L 83.328125 -95.84375 L 116.40625 -95.84375 L 116.40625 2.609375 C 116.40625 18.179688 111.234375 30.203125 100.890625 38.671875 C 90.554688 47.140625 76.921875 51.375 59.984375 51.375 C 32.578125 51.375 14.882812 42.097656 6.90625 23.546875 Z M 45.859375 -64.078125 C 41.566406 -59.847656 39.421875 -54.429688 39.421875 -47.828125 C 39.421875 -41.222656 41.472656 -35.832031 45.578125 -31.65625 C 49.691406 -27.488281 55.113281 -25.40625 61.84375 -25.40625 C 68.320312 -25.40625 73.644531 -27.519531 77.8125 -31.75 C 81.988281 -35.988281 84.078125 -41.347656 84.078125 -47.828125 C 84.078125 -54.429688 81.925781 -59.847656 77.625 -64.078125 C 73.332031 -68.316406 68.070312 -70.4375 61.84375 -70.4375 C 55.488281 -70.4375 50.160156 -68.316406 45.859375 -64.078125 Z M 45.859375 -64.078125 "/></g></g></g><g fill="#ffffff" fill-opacity="1"><g transform="translate(332.818487, 381.517927)"><g><path d="M 11.203125 0 L 11.203125 -160.6875 L 44.28125 -160.6875 L 44.28125 -85.765625 L 44.65625 -85.765625 C 53.25 -94.359375 62.40625 -98.65625 72.125 -98.65625 C 76.851562 -98.65625 81.550781 -98.03125 86.21875 -96.78125 C 90.894531 -95.539062 95.378906 -93.609375 99.671875 -90.984375 C 103.972656 -88.367188 107.460938 -84.664062 110.140625 -79.875 C 112.816406 -75.082031 114.15625 -69.507812 114.15625 -63.15625 L 114.15625 0 L 81.09375 0 L 81.09375 -54.1875 C 81.09375 -59.164062 79.503906 -63.523438 76.328125 -67.265625 C 73.148438 -71.003906 69.007812 -72.875 63.90625 -72.875 C 58.914062 -72.875 54.394531 -70.941406 50.34375 -67.078125 C 46.300781 -63.210938 44.28125 -58.914062 44.28125 -54.1875 L 44.28125 0 Z M 11.203125 0 "/></g></g></g><g fill="#ffffff" fill-opacity="1"><g transform="translate(446.9836, 381.517927)"><g><path d="M 16.8125 -95.84375 L 16.8125 -131.53125 L 49.890625 -131.53125 L 49.890625 -95.84375 L 70.0625 -95.84375 L 70.0625 -70.625 L 49.890625 -70.625 L 49.890625 -40.171875 C 49.890625 -31.328125 52.378906 -26.90625 57.359375 -26.90625 C 58.609375 -26.90625 59.914062 -27.15625 61.28125 -27.65625 C 62.65625 -28.15625 63.71875 -28.648438 64.46875 -29.140625 L 65.578125 -29.890625 L 73.796875 -3.171875 C 66.703125 0.804688 58.609375 2.796875 49.515625 2.796875 C 43.285156 2.796875 37.925781 1.707031 33.4375 -0.46875 C 28.957031 -2.644531 25.566406 -5.570312 23.265625 -9.25 C 20.960938 -12.925781 19.3125 -16.785156 18.3125 -20.828125 C 17.3125 -24.878906 16.8125 -29.207031 16.8125 -33.8125 L 16.8125 -70.625 L 2.984375 -70.625 L 2.984375 -95.84375 Z M 16.8125 -95.84375 "/></g></g></g><g fill="#ffffff" fill-opacity="1"><g transform="translate(60.578636, 559.024882)"><g><path d="M 17.75 -11.859375 C 8.78125 -21.640625 4.296875 -33.628906 4.296875 -47.828125 C 4.296875 -62.023438 8.78125 -74.046875 17.75 -83.890625 C 26.71875 -93.734375 38.113281 -98.65625 51.9375 -98.65625 C 64.644531 -98.65625 75.109375 -94.671875 83.328125 -86.703125 L 83.328125 -95.84375 L 116.40625 -95.84375 L 116.40625 0 L 83.703125 0 L 83.703125 -10.84375 L 83.328125 -10.84375 C 75.109375 -1.75 64.644531 2.796875 51.9375 2.796875 C 38.113281 2.796875 26.71875 -2.085938 17.75 -11.859375 Z M 45.859375 -64.078125 C 41.566406 -59.847656 39.421875 -54.429688 39.421875 -47.828125 C 39.421875 -41.222656 41.472656 -35.832031 45.578125 -31.65625 C 49.691406 -27.488281 55.113281 -25.40625 61.84375 -25.40625 C 68.320312 -25.40625 73.644531 -27.519531 77.8125 -31.75 C 81.988281 -35.988281 84.078125 -41.347656 84.078125 -47.828125 C 84.078125 -54.429688 81.925781 -59.847656 77.625 -64.078125 C 73.332031 -68.316406 68.070312 -70.4375 61.84375 -70.4375 C 55.488281 -70.4375 50.160156 -68.316406 45.859375 -64.078125 Z M 45.859375 -64.078125 "/></g></g></g><g fill="#ffffff" fill-opacity="1"><g transform="translate(178.854417, 559.024882)"><g><path d="M 17.75 -11.859375 C 8.78125 -21.640625 4.296875 -33.628906 4.296875 -47.828125 C 4.296875 -62.023438 8.78125 -74.046875 17.75 -83.890625 C 26.71875 -93.734375 38.113281 -98.65625 51.9375 -98.65625 C 64.644531 -98.65625 75.109375 -94.671875 83.328125 -86.703125 L 83.328125 -160.6875 L 116.40625 -160.6875 L 116.40625 0 L 83.703125 0 L 83.703125 -10.84375 L 83.328125 -10.84375 C 75.109375 -1.75 64.644531 2.796875 51.9375 2.796875 C 38.113281 2.796875 26.71875 -2.085938 17.75 -11.859375 Z M 45.859375 -64.078125 C 41.566406 -59.847656 39.421875 -54.429688 39.421875 -47.828125 C 39.421875 -41.222656 41.472656 -35.832031 45.578125 -31.65625 C 49.691406 -27.488281 55.113281 -25.40625 61.84375 -25.40625 C 68.320312 -25.40625 73.644531 -27.519531 77.8125 -31.75 C 81.988281 -35.988281 84.078125 -41.347656 84.078125 -47.828125 C 84.078125 -54.429688 81.925781 -59.847656 77.625 -64.078125 C 73.332031 -68.316406 68.070312 -70.4375 61.84375 -70.4375 C 55.488281 -70.4375 50.160156 -68.316406 45.859375 -64.078125 Z M 45.859375 -64.078125 "/></g></g></g><g fill="#ffffff" fill-opacity="1"><g transform="translate(297.130198, 559.024882)"><g><path d="M 35.5 -95.84375 L 58.859375 -43.71875 L 82.21875 -95.84375 L 121.453125 -95.84375 L 70.0625 0 L 47.640625 0 L -3.734375 -95.84375 Z M 35.5 -95.84375 "/></g></g></g><g fill="#ffffff" fill-opacity="1"><g transform="translate(405.502963, 559.024882)"><g><path d="M 14.375 -149.28125 C 18.238281 -153.144531 22.847656 -155.078125 28.203125 -155.078125 C 33.566406 -155.078125 38.175781 -153.144531 42.03125 -149.28125 C 45.894531 -145.425781 47.828125 -140.816406 47.828125 -135.453125 C 47.828125 -130.097656 45.894531 -125.488281 42.03125 -121.625 C 38.175781 -117.769531 33.566406 -115.84375 28.203125 -115.84375 C 22.847656 -115.84375 18.238281 -117.769531 14.375 -121.625 C 10.519531 -125.488281 8.59375 -130.097656 8.59375 -135.453125 C 8.59375 -140.816406 10.519531 -145.425781 14.375 -149.28125 Z M 11.203125 -95.84375 L 11.203125 0 L 44.28125 0 L 44.28125 -95.84375 Z M 11.203125 -95.84375 "/></g></g></g><g fill="#ffffff" fill-opacity="1"><g transform="translate(452.589057, 559.024882)"><g><path d="M 52.875 -98.65625 C 58.351562 -98.65625 63.769531 -98.03125 69.125 -96.78125 C 74.488281 -95.539062 78.476562 -94.296875 81.09375 -93.046875 L 85.015625 -91.1875 L 74.171875 -69.5 C 66.703125 -73.488281 59.601562 -75.484375 52.875 -75.484375 C 49.132812 -75.484375 46.484375 -75.078125 44.921875 -74.265625 C 43.367188 -73.460938 42.59375 -71.9375 42.59375 -69.6875 C 42.59375 -69.1875 42.65625 -68.6875 42.78125 -68.1875 C 42.90625 -67.695312 43.15625 -67.234375 43.53125 -66.796875 C 43.90625 -66.359375 44.25 -65.984375 44.5625 -65.671875 C 44.875 -65.359375 45.398438 -65.015625 46.140625 -64.640625 C 46.890625 -64.273438 47.484375 -64 47.921875 -63.8125 C 48.359375 -63.625 49.070312 -63.34375 50.0625 -62.96875 C 51.0625 -62.59375 51.8125 -62.3125 52.3125 -62.125 C 52.8125 -61.9375 53.648438 -61.65625 54.828125 -61.28125 C 56.015625 -60.90625 56.921875 -60.65625 57.546875 -60.53125 C 61.410156 -59.414062 64.773438 -58.171875 67.640625 -56.796875 C 70.503906 -55.429688 73.523438 -53.5625 76.703125 -51.1875 C 79.878906 -48.820312 82.335938 -45.832031 84.078125 -42.21875 C 85.828125 -38.613281 86.703125 -34.503906 86.703125 -29.890625 C 86.703125 -8.097656 71.566406 2.796875 41.296875 2.796875 C 34.441406 2.796875 27.929688 1.738281 21.765625 -0.375 C 15.597656 -2.488281 11.144531 -4.601562 8.40625 -6.71875 L 4.296875 -10.09375 L 17.75 -32.703125 C 18.75 -31.828125 20.054688 -30.796875 21.671875 -29.609375 C 23.296875 -28.429688 26.222656 -26.8125 30.453125 -24.75 C 34.691406 -22.695312 38.367188 -21.671875 41.484375 -21.671875 C 48.328125 -21.671875 51.75 -23.976562 51.75 -28.59375 C 51.75 -30.707031 50.878906 -32.351562 49.140625 -33.53125 C 47.398438 -34.71875 44.441406 -36.054688 40.265625 -37.546875 C 36.085938 -39.046875 32.816406 -40.421875 30.453125 -41.671875 C 24.472656 -44.785156 19.738281 -48.300781 16.25 -52.21875 C 12.769531 -56.144531 11.03125 -61.347656 11.03125 -67.828125 C 11.03125 -77.535156 14.796875 -85.097656 22.328125 -90.515625 C 29.859375 -95.941406 40.039062 -98.65625 52.875 -98.65625 Z M 52.875 -98.65625 "/></g></g></g><g fill="#ffffff" fill-opacity="1"><g transform="translate(535.17655, 559.024882)"><g><path d="M 20.265625 -11.390625 C 9.617188 -20.859375 4.296875 -33.003906 4.296875 -47.828125 C 4.296875 -62.648438 9.835938 -74.828125 20.921875 -84.359375 C 32.015625 -93.890625 45.71875 -98.65625 62.03125 -98.65625 C 78.101562 -98.65625 91.648438 -93.859375 102.671875 -84.265625 C 113.691406 -74.671875 119.203125 -62.523438 119.203125 -47.828125 C 119.203125 -33.128906 113.8125 -21.015625 103.03125 -11.484375 C 92.257812 -1.960938 78.59375 2.796875 62.03125 2.796875 C 44.84375 2.796875 30.921875 -1.929688 20.265625 -11.390625 Z M 45.859375 -64.078125 C 41.566406 -59.847656 39.421875 -54.429688 39.421875 -47.828125 C 39.421875 -41.222656 41.472656 -35.832031 45.578125 -31.65625 C 49.691406 -27.488281 55.113281 -25.40625 61.84375 -25.40625 C 68.320312 -25.40625 73.644531 -27.519531 77.8125 -31.75 C 81.988281 -35.988281 84.078125 -41.347656 84.078125 -47.828125 C 84.078125 -54.429688 81.925781 -59.847656 77.625 -64.078125 C 73.332031 -68.316406 68.070312 -70.4375 61.84375 -70.4375 C 55.488281 -70.4375 50.160156 -68.316406 45.859375 -64.078125 Z M 45.859375 -64.078125 "/></g></g></g><g fill="#ffffff" fill-opacity="1"><g transform="translate(649.341643, 559.024882)"><g><path d="M 11.203125 0 L 11.203125 -95.84375 L 44.28125 -95.84375 L 44.28125 -82.03125 L 44.65625 -82.03125 C 44.90625 -82.519531 45.304688 -83.140625 45.859375 -83.890625 C 46.421875 -84.640625 47.632812 -85.945312 49.5 -87.8125 C 51.375 -89.6875 53.367188 -91.367188 55.484375 -92.859375 C 57.609375 -94.359375 60.351562 -95.695312 63.71875 -96.875 C 67.082031 -98.0625 70.503906 -98.65625 73.984375 -98.65625 C 77.597656 -98.65625 81.148438 -98.15625 84.640625 -97.15625 C 88.128906 -96.15625 90.679688 -95.160156 92.296875 -94.171875 L 94.921875 -92.671875 L 81.09375 -64.640625 C 76.976562 -68.128906 71.25 -69.875 63.90625 -69.875 C 59.914062 -69.875 56.488281 -69 53.625 -67.25 C 50.757812 -65.507812 48.734375 -63.394531 47.546875 -60.90625 C 46.367188 -58.414062 45.53125 -56.296875 45.03125 -54.546875 C 44.53125 -52.804688 44.28125 -51.441406 44.28125 -50.453125 L 44.28125 0 Z M 11.203125 0 "/></g></g></g><g clip-path="url(#38c67be97a)"><path fill="#ffffff" d="M 635.054688 190.25 C 595.824219 190.25 564 222.199219 564 261.585938 C 564 315.085938 635.054688 394.0625 635.054688 394.0625 C 635.054688 394.0625 706.109375 315.085938 706.109375 261.585938 C 706.109375 222.199219 674.289062 190.25 635.054688 190.25 Z M 635.054688 287.0625 C 621.046875 287.0625 609.679688 275.648438 609.679688 261.585938 C 609.679688 247.523438 621.046875 236.109375 635.054688 236.109375 C 649.0625 236.109375 660.433594 247.523438 660.433594 261.585938 C 660.433594 275.648438 649.0625 287.0625 635.054688 287.0625 Z M 635.054688 287.0625 " fill-opacity="1" fill-rule="nonzero"/></g></svg>